<?xml version="1.0" encoding="UTF-8"?><svg id="Layer_1" xmlns="http://www.w3.org/2000/svg" viewBox="0 0 528.62 105.61"><defs><style>.cls-1,.cls-2{fill:#cb2026;}.cls-3{fill:#231f20;}.cls-2{fill-rule:evenodd;}</style></defs><g><path class="cls-3" d="M134.33,5.38h5.01v14.03c0,6.33-3.03,8.53-7.91,8.53-1.15,0-2.67-.2-3.66-.53l.56-4.05c.69,.23,1.58,.4,2.57,.4,2.11,0,3.43-.96,3.43-4.41V5.38Z"/><path class="cls-3" d="M164.18,16.25c0,7.28-4.41,11.69-10.9,11.69s-10.44-4.97-10.44-11.3c0-6.65,4.25-11.63,10.81-11.63s10.54,5.11,10.54,11.23Zm-16.04,.3c0,4.35,2.04,7.41,5.4,7.41s5.34-3.23,5.34-7.54c0-3.99-1.91-7.41-5.37-7.41s-5.37,3.23-5.37,7.54Z"/><path class="cls-3" d="M172.85,5.38V13.91h8.27V5.38h5.01V27.58h-5.01v-9.29h-8.27v9.29h-5.04V5.38h5.04Z"/><path class="cls-3" d="M190.85,27.58V5.38h5.86l4.61,8.14c1.32,2.34,2.64,5.11,3.62,7.61h.1c-.33-2.93-.43-5.93-.43-9.26V5.38h4.61V27.58h-5.27l-4.74-8.57c-1.32-2.37-2.77-5.24-3.85-7.84l-.1,.03c.13,2.93,.2,6.06,.2,9.69v6.69h-4.61Z"/><path class="cls-3" d="M226.07,21.88l-1.58,5.7h-5.21l6.79-22.2h6.59l6.89,22.2h-5.4l-1.71-5.7h-6.36Zm5.63-3.76l-1.38-4.71c-.4-1.32-.79-2.96-1.12-4.28h-.07c-.33,1.32-.66,3-1.02,4.28l-1.32,4.71h4.91Z"/><path class="cls-3" d="M242.84,27.58V5.38h5.86l4.61,8.14c1.32,2.34,2.64,5.11,3.62,7.61h.1c-.33-2.93-.43-5.93-.43-9.26V5.38h4.61V27.58h-5.27l-4.74-8.57c-1.32-2.37-2.77-5.24-3.85-7.84l-.1,.03c.13,2.93,.2,6.06,.2,9.69v6.69h-4.61Z"/><path class="cls-3" d="M265.91,5.67c1.84-.3,4.25-.46,6.79-.46,4.22,0,6.95,.76,9.09,2.37,2.31,1.71,3.76,4.45,3.76,8.37,0,4.25-1.55,7.18-3.69,8.99-2.34,1.94-5.9,2.87-10.25,2.87-2.6,0-4.45-.16-5.7-.33V5.67Zm5.04,18.12c.43,.1,1.12,.1,1.75,.1,4.55,.03,7.51-2.47,7.51-7.77,.03-4.61-2.67-7.05-6.98-7.05-1.12,0-1.85,.1-2.27,.2v14.53Z"/><path class="cls-3" d="M314.93,19.08c-.1-2.67-.2-5.9-.2-9.13h-.1c-.69,2.83-1.61,6-2.47,8.6l-2.7,8.66h-3.92l-2.37-8.6c-.72-2.6-1.48-5.77-2.01-8.66h-.07c-.13,3-.23,6.42-.4,9.19l-.4,8.43h-4.65l1.42-22.2h6.69l2.17,7.41c.69,2.57,1.38,5.34,1.88,7.94h.1c.63-2.57,1.38-5.5,2.11-7.97l2.37-7.38h6.56l1.22,22.2h-4.91l-.33-8.5Z"/><path class="cls-3" d="M329.43,21.88l-1.58,5.7h-5.21l6.79-22.2h6.59l6.88,22.2h-5.4l-1.71-5.7h-6.36Zm5.63-3.76l-1.38-4.71c-.39-1.32-.79-2.96-1.12-4.28h-.07c-.33,1.32-.66,3-1.02,4.28l-1.32,4.71h4.91Z"/><path class="cls-3" d="M346.21,5.67c1.61-.26,4.02-.46,6.69-.46,3.29,0,5.6,.49,7.18,1.75,1.32,1.05,2.04,2.6,2.04,4.65,0,2.83-2.01,4.78-3.92,5.47v.1c1.55,.63,2.4,2.11,2.96,4.15,.69,2.5,1.38,5.4,1.81,6.26h-5.14c-.36-.63-.89-2.44-1.55-5.17-.59-2.77-1.55-3.52-3.59-3.56h-1.52v8.73h-4.97V5.67Zm4.97,9.55h1.98c2.5,0,3.99-1.25,3.99-3.2,0-2.04-1.38-3.06-3.69-3.1-1.22,0-1.91,.1-2.27,.16v6.13Z"/><path class="cls-3" d="M382.25,26.95c-.92,.46-3,.96-5.7,.96-7.68,0-11.63-4.78-11.63-11.1,0-7.58,5.4-11.79,12.12-11.79,2.6,0,4.58,.53,5.47,.99l-1.02,3.99c-1.02-.43-2.44-.82-4.22-.82-3.99,0-7.08,2.4-7.08,7.35,0,4.45,2.64,7.25,7.12,7.25,1.52,0,3.2-.33,4.18-.73l.76,3.92Z"/><path class="cls-3" d="M390.92,5.38V27.58h-5.04V5.38h5.04Z"/><path class="cls-3" d="M400.77,21.88l-1.58,5.7h-5.21l6.79-22.2h6.59l6.88,22.2h-5.4l-1.71-5.7h-6.36Zm5.63-3.76l-1.38-4.71c-.39-1.32-.79-2.96-1.12-4.28h-.07c-.33,1.32-.66,3-1.02,4.28l-1.32,4.71h4.91Z"/><path class="cls-3" d="M424.53,5.67c1.55-.26,3.72-.46,6.79-.46s5.3,.59,6.79,1.78c1.42,1.12,2.37,2.96,2.37,5.14s-.72,4.02-2.04,5.27c-1.71,1.61-4.25,2.34-7.21,2.34-.66,0-1.25-.03-1.71-.1v7.94h-4.97V5.67Zm4.97,10.08c.43,.1,.96,.13,1.68,.13,2.67,0,4.32-1.35,4.32-3.62,0-2.04-1.42-3.26-3.92-3.26-1.02,0-1.71,.1-2.08,.2v6.56Z"/><path class="cls-3" d="M444,5.67c1.61-.26,4.02-.46,6.69-.46,3.29,0,5.6,.49,7.18,1.75,1.32,1.05,2.04,2.6,2.04,4.65,0,2.83-2.01,4.78-3.92,5.47v.1c1.55,.63,2.4,2.11,2.96,4.15,.69,2.5,1.38,5.4,1.81,6.26h-5.14c-.36-.63-.89-2.44-1.55-5.17-.59-2.77-1.55-3.52-3.59-3.56h-1.52v8.73h-4.97V5.67Zm4.97,9.55h1.98c2.5,0,3.99-1.25,3.99-3.2,0-2.04-1.38-3.06-3.69-3.1-1.22,0-1.91,.1-2.27,.16v6.13Z"/><path class="cls-3" d="M468.91,5.38V27.58h-5.04V5.38h5.04Z"/><path class="cls-3" d="M489.9,26.95c-.92,.46-3,.96-5.7,.96-7.68,0-11.63-4.78-11.63-11.1,0-7.58,5.4-11.79,12.12-11.79,2.6,0,4.58,.53,5.47,.99l-1.02,3.99c-1.02-.43-2.44-.82-4.22-.82-3.99,0-7.08,2.4-7.08,7.35,0,4.45,2.64,7.25,7.12,7.25,1.52,0,3.2-.33,4.18-.73l.76,3.92Z"/><path class="cls-3" d="M506.74,18.19h-8.17v5.27h9.12v4.12h-14.17V5.38h13.71v4.12h-8.66v4.61h8.17v4.08Z"/><path class="cls-3" d="M146.29,57.95c-.92,.46-3,.96-5.7,.96-7.68,0-11.63-4.78-11.63-11.1,0-7.58,5.4-11.79,12.12-11.79,2.6,0,4.58,.53,5.47,.99l-1.02,3.99c-1.02-.43-2.44-.82-4.22-.82-3.99,0-7.08,2.4-7.08,7.35,0,4.45,2.64,7.25,7.12,7.25,1.52,0,3.2-.33,4.18-.73l.76,3.92Z"/><path class="cls-3" d="M169.26,47.25c0,7.28-4.41,11.7-10.9,11.7s-10.44-4.98-10.44-11.3c0-6.65,4.25-11.63,10.81-11.63s10.54,5.11,10.54,11.23Zm-16.04,.3c0,4.35,2.04,7.41,5.4,7.41s5.34-3.23,5.34-7.54c0-3.99-1.91-7.41-5.37-7.41s-5.37,3.23-5.37,7.54Z"/><path class="cls-3" d="M172.89,36.38h5.04v17.99h8.83v4.22h-13.87v-22.2Z"/><path class="cls-3" d="M190.05,36.38h5.04v17.99h8.83v4.22h-13.87v-22.2Z"/><path class="cls-3" d="M220.43,49.19h-8.17v5.27h9.12v4.12h-14.17v-22.2h13.7v4.12h-8.66v4.61h8.17v4.08Z"/><path class="cls-3" d="M243.69,57.56c-1.55,.53-4.48,1.25-7.41,1.25-4.05,0-6.98-1.02-9.03-3-2.04-1.91-3.16-4.81-3.13-8.07,.03-7.38,5.4-11.6,12.68-11.6,2.87,0,5.07,.56,6.16,1.09l-1.05,4.02c-1.22-.53-2.73-.96-5.17-.96-4.18,0-7.35,2.37-7.35,7.18s2.87,7.28,6.98,7.28c1.15,0,2.08-.13,2.47-.33v-4.65h-3.43v-3.92h8.27v11.69Z"/><path class="cls-3" d="M261.16,49.19h-8.17v5.27h9.13v4.12h-14.17v-22.2h13.7v4.12h-8.66v4.61h8.17v4.08Z"/><path class="cls-3" d="M293.19,47.25c0,7.28-4.42,11.7-10.9,11.7s-10.44-4.98-10.44-11.3c0-6.65,4.25-11.63,10.81-11.63s10.54,5.11,10.54,11.23Zm-16.04,.3c0,4.35,2.04,7.41,5.4,7.41s5.34-3.23,5.34-7.54c0-3.99-1.91-7.41-5.37-7.41s-5.37,3.23-5.37,7.54Z"/><path class="cls-3" d="M296.81,36.38h13.57v4.12h-8.53v5.07h7.97v4.08h-7.97v8.93h-5.04v-22.2Z"/><path class="cls-3" d="M334.7,49.19h-8.17v5.27h9.12v4.12h-14.17v-22.2h13.71v4.12h-8.66v4.61h8.17v4.08Z"/><path class="cls-3" d="M339.42,58.58v-22.2h5.86l4.61,8.14c1.32,2.34,2.64,5.11,3.62,7.61h.1c-.33-2.93-.43-5.93-.43-9.26v-6.49h4.61v22.2h-5.27l-4.74-8.56c-1.32-2.37-2.77-5.24-3.85-7.84l-.1,.03c.13,2.93,.2,6.06,.2,9.69v6.69h-4.61Z"/><path class="cls-3" d="M381.03,57.56c-1.55,.53-4.48,1.25-7.41,1.25-4.05,0-6.98-1.02-9.03-3-2.04-1.91-3.16-4.81-3.13-8.07,.03-7.38,5.4-11.6,12.68-11.6,2.87,0,5.07,.56,6.16,1.09l-1.05,4.02c-1.22-.53-2.73-.96-5.17-.96-4.18,0-7.35,2.37-7.35,7.18s2.87,7.28,6.98,7.28c1.15,0,2.08-.13,2.47-.33v-4.65h-3.43v-3.92h8.27v11.69Z"/><path class="cls-3" d="M390.33,36.38v22.2h-5.04v-22.2h5.04Z"/><path class="cls-3" d="M395.01,58.58v-22.2h5.86l4.61,8.14c1.32,2.34,2.64,5.11,3.62,7.61h.1c-.33-2.93-.43-5.93-.43-9.26v-6.49h4.61v22.2h-5.27l-4.74-8.56c-1.32-2.37-2.77-5.24-3.85-7.84l-.1,.03c.13,2.93,.2,6.06,.2,9.69v6.69h-4.61Z"/><path class="cls-3" d="M431.28,49.19h-8.17v5.27h9.12v4.12h-14.17v-22.2h13.71v4.12h-8.66v4.61h8.17v4.08Z"/><path class="cls-3" d="M449.21,49.19h-8.17v5.27h9.12v4.12h-14.17v-22.2h13.71v4.12h-8.66v4.61h8.17v4.08Z"/><path class="cls-3" d="M453.92,36.67c1.61-.26,4.02-.46,6.69-.46,3.29,0,5.6,.49,7.18,1.75,1.32,1.05,2.04,2.6,2.04,4.65,0,2.83-2.01,4.78-3.92,5.47v.1c1.55,.63,2.4,2.11,2.96,4.15,.69,2.5,1.38,5.4,1.81,6.26h-5.14c-.36-.63-.89-2.44-1.55-5.17-.59-2.77-1.55-3.52-3.59-3.56h-1.52v8.73h-4.97v-21.91Zm4.97,9.55h1.98c2.5,0,3.99-1.25,3.99-3.2,0-2.04-1.38-3.06-3.69-3.1-1.22,0-1.91,.1-2.27,.16v6.13Z"/><path class="cls-3" d="M478.83,36.38v22.2h-5.04v-22.2h5.04Z"/><path class="cls-3" d="M483.51,58.58v-22.2h5.86l4.61,8.14c1.32,2.34,2.64,5.11,3.62,7.61h.1c-.33-2.93-.43-5.93-.43-9.26v-6.49h4.61v22.2h-5.27l-4.74-8.56c-1.32-2.37-2.77-5.24-3.85-7.84l-.1,.03c.13,2.93,.2,6.06,.2,9.69v6.69h-4.61Z"/><path class="cls-3" d="M525.12,57.56c-1.55,.53-4.48,1.25-7.41,1.25-4.05,0-6.98-1.02-9.03-3-2.04-1.91-3.16-4.81-3.13-8.07,.03-7.38,5.4-11.6,12.68-11.6,2.87,0,5.07,.56,6.16,1.09l-1.05,4.02c-1.22-.53-2.73-.96-5.17-.96-4.18,0-7.35,2.37-7.35,7.18s2.87,7.28,6.98,7.28c1.15,0,2.08-.13,2.47-.33v-4.65h-3.43v-3.92h8.27v11.69Z"/></g><g><path class="cls-1" d="M102.54,104.12c-.99,.99-2.18,1.49-3.58,1.49s-2.59-.5-3.58-1.49c-.98-.99-1.47-2.18-1.47-3.59s.49-2.58,1.48-3.57c.98-.98,2.17-1.47,3.56-1.47s2.59,.49,3.58,1.47c.99,.98,1.48,2.17,1.48,3.57s-.49,2.59-1.48,3.59Zm-6.65-6.66c-.85,.85-1.27,1.87-1.27,3.08s.42,2.25,1.26,3.1c.85,.85,1.87,1.28,3.08,1.28s2.23-.43,3.08-1.28c.85-.85,1.27-1.89,1.27-3.1s-.42-2.23-1.27-3.08c-.85-.85-1.88-1.28-3.08-1.28s-2.22,.43-3.07,1.28Zm2.98,.28c.69,0,1.19,.07,1.52,.2,.57,.24,.86,.71,.86,1.41,0,.5-.18,.86-.54,1.1-.19,.12-.46,.21-.8,.27,.43,.07,.75,.25,.95,.54,.2,.29,.3,.58,.3,.86v.41c0,.13,0,.26,.01,.41s.03,.24,.05,.29l.03,.07h-.92s0-.04-.01-.06c0-.02,0-.04-.01-.06l-.02-.18v-.44c0-.64-.17-1.06-.52-1.27-.21-.12-.57-.18-1.09-.18h-.77v2.18h-.98v-5.55h1.94Zm1.06,.88c-.25-.14-.64-.21-1.18-.21h-.84v2.01h.88c.42,0,.73-.04,.93-.12,.38-.15,.57-.44,.57-.87,0-.4-.12-.68-.37-.81Z"/><polygon class="cls-2" points="0 3.84 0 34.08 10.08 34.08 10.08 84.34 30.24 104.37 80.37 104.37 100.53 84.34 100.53 34.08 110.61 34.08 110.61 3.84 60.34 3.84 60.34 34.08 70.43 34.08 70.43 74.13 40.19 74.13 40.19 34.08 50.26 34.08 50.26 3.84 0 3.84"/></g><g><path class="cls-3" d="M136.03,95.59c0,2.58,0,4.7,.14,5.82,.08,.78,.25,1.37,1.08,1.48,.39,.05,1,.11,1.25,.11,.17,0,.22,.08,.22,.16,0,.14-.14,.22-.45,.22-1.53,0-3.28-.08-3.42-.08s-1.89,.08-2.73,.08c-.31,0-.45-.05-.45-.22,0-.08,.06-.16,.22-.16,.25,0,.58-.06,.83-.11,.56-.11,.7-.7,.81-1.48,.14-1.13,.14-3.25,.14-5.82v-11.35l-4.12,.06c-1.73,.03-2.39,.21-2.84,.86-.31,.46-.39,.65-.47,.83-.08,.22-.17,.27-.28,.27-.08,0-.14-.08-.14-.24,0-.27,.56-2.58,.61-2.79,.06-.16,.17-.51,.28-.51,.19,0,.47,.27,1.22,.32,.81,.08,1.86,.13,2.2,.13h10.43c.89,0,1.53-.06,1.97-.13,.42-.06,.67-.14,.78-.14,.14,0,.14,.16,.14,.32,0,.8-.08,2.66-.08,2.95,0,.24-.08,.35-.2,.35-.14,0-.19-.08-.22-.46l-.03-.3c-.08-.8-.75-1.42-3.42-1.47l-3.5-.06v11.35Z"/><path class="cls-3" d="M165.33,95.59c0,2.58,0,4.7,.14,5.82,.08,.78,.25,1.37,1.08,1.48,.39,.05,1,.11,1.25,.11,.17,0,.22,.08,.22,.16,0,.14-.14,.22-.45,.22-1.53,0-3.28-.08-3.42-.08s-1.89,.08-2.73,.08c-.31,0-.45-.05-.45-.22,0-.08,.06-.16,.22-.16,.25,0,.58-.06,.83-.11,.56-.11,.7-.7,.81-1.48,.14-1.13,.14-3.25,.14-5.82v-2.82c0-.11-.08-.16-.17-.16h-11.79c-.08,0-.17,.03-.17,.16v2.82c0,2.58,0,4.7,.14,5.82,.08,.78,.25,1.37,1.08,1.48,.39,.05,1,.11,1.25,.11,.17,0,.22,.08,.22,.16,0,.14-.14,.22-.44,.22-1.53,0-3.28-.08-3.42-.08s-1.89,.08-2.73,.08c-.31,0-.45-.05-.45-.22,0-.08,.06-.16,.22-.16,.25,0,.58-.06,.83-.11,.56-.11,.7-.7,.81-1.48,.14-1.13,.14-3.25,.14-5.82v-4.72c0-4.19,0-4.94-.06-5.8-.06-.91-.28-1.34-1.2-1.53-.22-.05-.7-.08-.95-.08-.11,0-.22-.05-.22-.16,0-.16,.14-.22,.45-.22,1.25,0,3,.08,3.14,.08s1.89-.08,2.73-.08c.31,0,.44,.06,.44,.22,0,.11-.11,.16-.22,.16-.2,0-.36,.03-.7,.08-.75,.13-.97,.59-1.03,1.53-.06,.86-.06,1.61-.06,5.8v.56c0,.13,.08,.16,.17,.16h11.79c.08,0,.17-.03,.17-.16v-.56c0-4.19,0-4.94-.06-5.8-.06-.91-.28-1.34-1.2-1.53-.22-.05-.7-.08-.95-.08-.11,0-.22-.05-.22-.16,0-.16,.14-.22,.45-.22,1.25,0,3,.08,3.14,.08s1.89-.08,2.73-.08c.31,0,.44,.06,.44,.22,0,.11-.11,.16-.22,.16-.19,0-.36,.03-.69,.08-.75,.13-.97,.59-1.03,1.53-.06,.86-.06,1.61-.06,5.8v4.72Z"/><path class="cls-3" d="M173.61,90.87c0-4.19,0-4.94-.06-5.8-.06-.91-.28-1.34-1.2-1.53-.22-.05-.7-.08-.95-.08-.11,0-.22-.05-.22-.16,0-.16,.14-.22,.44-.22,.64,0,1.39,0,2,.03l1.14,.06c.2,0,5.73,0,6.37-.03,.53-.03,.97-.08,1.2-.14,.14-.03,.25-.13,.39-.13,.08,0,.11,.11,.11,.24,0,.19-.14,.51-.22,1.26-.03,.27-.08,1.45-.14,1.77-.03,.13-.08,.29-.19,.29-.17,0-.22-.13-.22-.35,0-.19-.03-.64-.17-.96-.19-.43-.47-.75-1.97-.91-.47-.06-3.5-.08-3.81-.08-.11,0-.17,.08-.17,.27v7.4c0,.19,.03,.27,.17,.27,.36,0,3.78,0,4.42-.06,.67-.05,1.06-.11,1.31-.37,.2-.22,.31-.35,.42-.35,.08,0,.14,.05,.14,.22s-.14,.62-.22,1.5c-.06,.53-.11,1.53-.11,1.72,0,.22,0,.51-.19,.51-.14,0-.19-.11-.19-.24,0-.27,0-.54-.11-.89-.11-.37-.36-.83-1.45-.94-.75-.08-3.5-.13-3.98-.13-.14,0-.19,.08-.19,.19v2.36c0,.91-.03,4.02,0,4.59,.08,1.85,.5,2.2,3.23,2.2,.72,0,1.95,0,2.67-.3,.72-.3,1.06-.83,1.25-1.93,.05-.29,.11-.4,.25-.4,.17,0,.17,.21,.17,.4,0,.22-.22,2.04-.36,2.6-.19,.7-.42,.7-1.5,.7-2.09,0-3.62-.06-4.7-.08-1.08-.05-1.75-.08-2.17-.08-.06,0-.53,0-1.11,.03-.56,0-1.2,.05-1.61,.05-.31,0-.44-.05-.44-.22,0-.08,.06-.16,.22-.16,.25,0,.58-.06,.83-.11,.56-.11,.69-.7,.81-1.48,.14-1.13,.14-3.25,.14-5.82v-4.72Z"/><path class="cls-3" d="M195.79,90.87c0-4.19,0-4.94-.06-5.8-.06-.91-.28-1.34-1.2-1.53-.22-.05-.69-.08-.95-.08-.11,0-.22-.05-.22-.16,0-.16,.14-.22,.44-.22,1.25,0,2.95,.08,3.2,.08s1.92-.08,2.75-.08c.31,0,.44,.06,.44,.22,0,.11-.11,.16-.22,.16-.19,0-.36,.03-.69,.08-.75,.11-.97,.59-1.03,1.53-.06,.86-.06,1.61-.06,5.8v3.76c0,3.86,.89,5.53,2.09,6.63,1.36,1.23,2.62,1.48,4.2,1.48,1.7,0,3.37-.78,4.37-1.93,1.28-1.53,1.61-3.81,1.61-6.58v-3.35c0-4.19,0-4.94-.06-5.8-.06-.91-.28-1.34-1.2-1.53-.22-.05-.7-.08-.95-.08-.11,0-.22-.05-.22-.16,0-.16,.14-.22,.45-.22,1.25,0,2.78,.08,2.95,.08,.2,0,1.5-.08,2.34-.08,.31,0,.44,.06,.44,.22,0,.11-.11,.16-.22,.16-.2,0-.36,.03-.7,.08-.75,.16-.97,.59-1.03,1.53-.05,.86-.05,1.61-.05,5.8v2.87c0,2.9-.33,6.12-2.56,8.02-2,1.72-4.09,1.99-5.73,1.99-.95,0-3.75-.11-5.73-1.91-1.36-1.26-2.42-3.14-2.42-7.06v-3.92Z"/><path class="cls-3" d="M219.5,99.72c.06,2.2,.33,2.9,1.09,3.12,.53,.13,1.14,.16,1.39,.16,.14,0,.22,.05,.22,.16,0,.16-.17,.22-.5,.22-1.58,0-2.7-.08-2.95-.08s-1.42,.08-2.67,.08c-.28,0-.45-.03-.45-.22,0-.11,.08-.16,.22-.16,.22,0,.72-.03,1.14-.16,.7-.19,.83-.97,.83-3.41l.03-15.38c0-1.05,.08-1.34,.31-1.34s.7,.59,.97,.86c.42,.46,4.56,4.78,8.84,9.21,2.75,2.84,5.79,6.12,6.68,7l-.31-13.63c-.03-1.74-.22-2.34-1.09-2.55-.5-.11-1.14-.14-1.36-.14-.2,0-.22-.08-.22-.19,0-.16,.22-.19,.56-.19,1.25,0,2.59,.08,2.89,.08s1.22-.08,2.36-.08c.31,0,.5,.03,.5,.19,0,.11-.11,.19-.31,.19-.14,0-.33,0-.67,.08-.92,.19-1.03,.78-1.03,2.39l-.06,15.72c0,1.77-.05,1.91-.25,1.91-.22,0-.56-.3-2.03-1.72-.31-.27-4.31-4.21-7.26-7.27-3.23-3.35-6.37-6.73-7.26-7.7l.36,12.85Z"/><path class="cls-3" d="M245.9,95.59c0,2.58,0,4.7,.14,5.82,.08,.78,.25,1.37,1.09,1.48,.39,.05,1,.11,1.25,.11,.17,0,.22,.08,.22,.16,0,.14-.14,.22-.44,.22-1.53,0-3.28-.08-3.42-.08s-1.89,.08-2.73,.08c-.31,0-.44-.05-.44-.22,0-.08,.06-.16,.22-.16,.25,0,.58-.06,.83-.11,.56-.11,.69-.7,.81-1.48,.14-1.13,.14-3.25,.14-5.82v-4.72c0-4.19,0-4.94-.06-5.8-.06-.91-.33-1.37-.95-1.5-.31-.08-.67-.11-.86-.11-.11,0-.22-.05-.22-.16,0-.16,.14-.22,.45-.22,.92,0,2.67,.08,2.81,.08s1.89-.08,2.73-.08c.31,0,.45,.06,.45,.22,0,.11-.11,.16-.22,.16-.19,0-.36,.03-.7,.08-.75,.13-.97,.59-1.03,1.53-.06,.86-.06,1.61-.06,5.8v4.72Z"/><path class="cls-3" d="M261.61,100.1c1.61-3.6,5.34-12.96,5.95-14.89,.14-.4,.25-.78,.25-1.02,0-.22-.08-.49-.36-.62-.33-.11-.75-.11-1.06-.11-.17,0-.3-.03-.3-.16,0-.16,.17-.22,.61-.22,1.11,0,2.39,.08,2.73,.08,.17,0,1.36-.08,2.17-.08,.31,0,.47,.06,.47,.19s-.11,.19-.33,.19c-.19,0-.8,0-1.33,.32-.36,.24-.78,.7-1.53,2.52-.3,.75-1.7,3.97-3.11,7.27-1.7,3.92-2.95,6.81-3.59,8.13-.78,1.61-.89,2.04-1.17,2.04-.33,0-.47-.38-1-1.67l-6.82-16.45c-.61-1.5-1.03-1.8-2-2.07-.42-.11-.89-.11-1.06-.11s-.22-.08-.22-.19c0-.16,.28-.19,.72-.19,1.34,0,2.92,.08,3.25,.08,.28,0,1.53-.08,2.59-.08,.5,0,.75,.06,.75,.19s-.08,.19-.28,.19c-.31,0-.81,.03-1.06,.14-.31,.13-.36,.35-.36,.53,0,.35,.33,1.18,.75,2.23l5.34,13.74Z"/><path class="cls-3" d="M276.26,90.87c0-4.19,0-4.94-.06-5.8-.05-.91-.28-1.34-1.2-1.53-.22-.05-.7-.08-.95-.08-.11,0-.22-.05-.22-.16,0-.16,.14-.22,.45-.22,.64,0,1.39,0,2,.03l1.14,.06c.2,0,5.73,0,6.37-.03,.53-.03,.97-.08,1.2-.14,.14-.03,.25-.13,.39-.13,.08,0,.11,.11,.11,.24,0,.19-.14,.51-.22,1.26-.03,.27-.08,1.45-.14,1.77-.03,.13-.08,.29-.19,.29-.17,0-.22-.13-.22-.35,0-.19-.03-.64-.17-.96-.19-.43-.47-.75-1.97-.91-.47-.06-3.51-.08-3.81-.08-.11,0-.17,.08-.17,.27v7.4c0,.19,.03,.27,.17,.27,.36,0,3.78,0,4.42-.06,.67-.05,1.06-.11,1.31-.37,.2-.22,.3-.35,.42-.35,.08,0,.14,.05,.14,.22s-.14,.62-.22,1.5c-.06,.53-.11,1.53-.11,1.72,0,.22,0,.51-.2,.51-.14,0-.19-.11-.19-.24,0-.27,0-.54-.11-.89-.11-.37-.36-.83-1.45-.94-.75-.08-3.5-.13-3.98-.13-.14,0-.2,.08-.2,.19v2.36c0,.91-.03,4.02,0,4.59,.08,1.85,.5,2.2,3.23,2.2,.73,0,1.95,0,2.67-.3s1.06-.83,1.25-1.93c.06-.29,.11-.4,.25-.4,.17,0,.17,.21,.17,.4,0,.22-.22,2.04-.36,2.6-.2,.7-.42,.7-1.5,.7-2.08,0-3.61-.06-4.7-.08-1.08-.05-1.75-.08-2.17-.08-.05,0-.53,0-1.11,.03-.56,0-1.2,.05-1.61,.05-.3,0-.44-.05-.44-.22,0-.08,.05-.16,.22-.16,.25,0,.58-.06,.83-.11,.55-.11,.69-.7,.8-1.48,.14-1.13,.14-3.25,.14-5.82v-4.72Z"/><path class="cls-3" d="M291.5,90.87c0-4.19,0-4.94-.06-5.8-.05-.91-.28-1.34-1.2-1.53-.22-.05-.7-.08-.95-.08-.11,0-.22-.05-.22-.16,0-.16,.14-.22,.44-.22,1.25,0,3.01,.08,3.14,.08,.3,0,2.42-.08,3.28-.08,1.75,0,3.62,.16,5.09,1.18,.7,.49,1.92,1.8,1.92,3.65,0,1.99-.86,3.97-3.36,6.2,2.28,2.82,4.17,5.21,5.79,6.87,1.5,1.53,2.7,1.82,3.39,1.93,.53,.08,.92,.08,1.09,.08,.14,0,.25,.08,.25,.16,0,.16-.17,.22-.67,.22h-1.98c-1.56,0-2.25-.13-2.98-.51-1.2-.62-2.17-1.93-3.75-3.95-1.17-1.48-2.48-3.27-3.03-3.97-.11-.11-.19-.16-.36-.16l-3.42-.05c-.14,0-.19,.08-.19,.22v.64c0,2.58,0,4.7,.14,5.82,.08,.78,.25,1.37,1.08,1.48,.39,.05,1,.11,1.25,.11,.17,0,.22,.08,.22,.16,0,.14-.14,.22-.44,.22-1.53,0-3.28-.08-3.42-.08-.03,0-1.78,.08-2.61,.08-.31,0-.45-.05-.45-.22,0-.08,.05-.16,.22-.16,.25,0,.58-.06,.83-.11,.56-.11,.7-.7,.81-1.48,.14-1.13,.14-3.25,.14-5.82v-4.72Zm2.23,2.33c0,.14,.05,.24,.19,.32,.42,.24,1.7,.43,2.92,.43,.67,0,1.45-.08,2.08-.51,.98-.65,1.7-2.1,1.7-4.13,0-3.35-1.84-5.36-4.81-5.36-.83,0-1.58,.08-1.86,.16-.14,.05-.22,.16-.22,.32v8.77Z"/><path class="cls-3" d="M311.45,103.02c-.39-.19-.42-.29-.42-1.02,0-1.34,.11-2.41,.14-2.84,.03-.29,.08-.43,.22-.43,.17,0,.19,.08,.19,.29,0,.24,0,.62,.08,.99,.42,1.98,2.25,2.74,4.12,2.74,2.67,0,3.98-1.85,3.98-3.57,0-1.85-.8-2.93-3.2-4.83l-1.25-.99c-2.95-2.34-3.62-4-3.62-5.82,0-2.87,2.23-4.83,5.76-4.83,1.08,0,1.89,.11,2.59,.27,.53,.11,.75,.13,.97,.13s.28,.06,.28,.19-.11,1.02-.11,2.84c0,.43-.05,.62-.19,.62-.17,0-.2-.13-.22-.35-.03-.32-.2-1.05-.36-1.34-.17-.29-.92-1.42-3.48-1.42-1.92,0-3.42,1.15-3.42,3.11,0,1.53,.72,2.5,3.39,4.51l.78,.59c3.28,2.49,4.06,4.16,4.06,6.31,0,1.1-.45,3.14-2.36,4.45-1.2,.8-2.7,1.13-4.2,1.13-1.31,0-2.59-.19-3.73-.73Z"/><path class="cls-3" d="M329.51,95.59c0,2.58,0,4.7,.14,5.82,.08,.78,.25,1.37,1.08,1.48,.39,.05,1,.11,1.25,.11,.17,0,.22,.08,.22,.16,0,.14-.14,.22-.45,.22-1.53,0-3.28-.08-3.42-.08s-1.89,.08-2.73,.08c-.3,0-.44-.05-.44-.22,0-.08,.05-.16,.22-.16,.25,0,.58-.06,.84-.11,.55-.11,.69-.7,.8-1.48,.14-1.13,.14-3.25,.14-5.82v-4.72c0-4.19,0-4.94-.05-5.8-.05-.91-.33-1.37-.95-1.5-.31-.08-.67-.11-.86-.11-.11,0-.22-.05-.22-.16,0-.16,.14-.22,.45-.22,.92,0,2.67,.08,2.81,.08s1.89-.08,2.73-.08c.31,0,.45,.06,.45,.22,0,.11-.11,.16-.22,.16-.19,0-.36,.03-.7,.08-.75,.13-.97,.59-1.03,1.53-.06,.86-.06,1.61-.06,5.8v4.72Z"/><path class="cls-3" d="M344.19,95.59c0,2.58,0,4.7,.14,5.82,.08,.78,.25,1.37,1.08,1.48,.39,.05,1,.11,1.25,.11,.17,0,.22,.08,.22,.16,0,.14-.14,.22-.45,.22-1.53,0-3.28-.08-3.42-.08s-1.89,.08-2.73,.08c-.3,0-.45-.05-.45-.22,0-.08,.06-.16,.22-.16,.25,0,.58-.06,.83-.11,.56-.11,.7-.7,.81-1.48,.14-1.13,.14-3.25,.14-5.82v-11.35l-4.11,.06c-1.73,.03-2.39,.21-2.84,.86-.31,.46-.39,.65-.47,.83-.08,.22-.17,.27-.28,.27-.08,0-.14-.08-.14-.24,0-.27,.56-2.58,.61-2.79,.06-.16,.17-.51,.28-.51,.19,0,.47,.27,1.22,.32,.81,.08,1.86,.13,2.2,.13h10.43c.89,0,1.53-.06,1.98-.13,.42-.06,.67-.14,.78-.14,.14,0,.14,.16,.14,.32,0,.8-.08,2.66-.08,2.95,0,.24-.08,.35-.2,.35-.14,0-.19-.08-.22-.46l-.03-.3c-.08-.8-.75-1.42-3.42-1.47l-3.5-.06v11.35Z"/><path class="cls-3" d="M361.44,96.42c0-1.45-.28-2.04-.64-2.82-.2-.43-3.92-6.33-4.89-7.73-.7-.99-1.39-1.66-1.89-1.98-.42-.27-.95-.43-1.2-.43-.14,0-.28-.05-.28-.19,0-.11,.11-.19,.36-.19,.53,0,2.61,.08,2.75,.08,.2,0,1.25-.08,2.34-.08,.31,0,.36,.08,.36,.19s-.17,.13-.42,.24c-.22,.11-.36,.27-.36,.48,0,.32,.14,.65,.36,1.05,.44,.78,4.62,7.7,5.12,8.48,.53-1.13,4.06-7,4.62-7.89,.36-.56,.47-1.02,.47-1.37,0-.37-.11-.67-.45-.75-.25-.08-.42-.13-.42-.27,0-.1,.17-.16,.45-.16,.72,0,1.61,.08,1.84,.08,.17,0,2.17-.08,2.7-.08,.2,0,.36,.06,.36,.16,0,.14-.14,.22-.36,.22-.3,0-.83,.11-1.28,.38-.56,.32-.86,.64-1.48,1.37-.92,1.07-4.81,7.38-5.31,8.53-.42,.97-.42,1.8-.42,2.68v2.31c0,.43,0,1.55,.08,2.68,.05,.78,.3,1.37,1.14,1.48,.39,.05,1,.11,1.25,.11,.17,0,.22,.08,.22,.16,0,.14-.14,.22-.45,.22-1.53,0-3.28-.08-3.42-.08s-1.89,.08-2.73,.08c-.31,0-.45-.05-.45-.22,0-.08,.06-.16,.22-.16,.25,0,.58-.06,.83-.11,.56-.11,.81-.7,.86-1.48,.08-1.13,.08-2.25,.08-2.68v-2.31Z"/><path class="cls-3" d="M391.15,82.71c6.26,0,10.93,3.81,10.93,10.06s-4.39,10.98-11.1,10.98c-7.62,0-10.79-5.72-10.79-10.55,0-4.35,3.28-10.49,10.96-10.49Zm.58,20.02c2.5,0,7.68-1.4,7.68-9.21,0-6.44-4.06-9.9-8.45-9.9-4.64,0-8.12,2.95-8.12,8.83,0,6.25,3.89,10.28,8.9,10.28Z"/><path class="cls-3" d="M406.93,90.87c0-4.19,0-4.94-.05-5.8-.06-.91-.28-1.34-1.2-1.53-.22-.05-.69-.08-.94-.08-.11,0-.22-.05-.22-.16,0-.16,.14-.22,.44-.22,.64,0,1.39,0,2,.03l1.14,.06c.56,.03,6.2,0,6.84-.03,.53-.03,.97-.03,1.22-.11,.17-.06,.28-.16,.39-.16s.17,.11,.17,.24c0,.19-.14,.51-.22,1.26-.03,.27-.08,1.45-.14,1.77-.03,.13-.08,.29-.22,.29s-.2-.13-.2-.32c0-.22-.08-.67-.25-1.02-.17-.35-.81-.83-1.89-.86l-4.28-.08c-.17,0-.25,.08-.25,.3v7.41c0,.16,.03,.24,.19,.24l3.56-.03c.47,0,.86,0,1.25-.03,.67-.05,1.03-.13,1.28-.48,.11-.13,.19-.27,.3-.27s.14,.08,.14,.22c0,.16-.14,.62-.22,1.5-.06,.53-.11,1.61-.11,1.8,0,.24,0,.51-.2,.51-.14,0-.2-.11-.2-.24-.03-.27-.05-.65-.17-.97-.14-.37-.58-.86-1.45-.96-.7-.08-3.73-.08-4.2-.08-.14,0-.19,.06-.19,.24v2.28c0,2.58,0,4.7,.14,5.82,.08,.78,.25,1.37,1.08,1.48,.39,.05,1,.11,1.25,.11,.17,0,.22,.08,.22,.16,0,.14-.14,.22-.44,.22-1.53,0-3.28-.08-3.42-.08s-1.89,.08-2.73,.08c-.31,0-.45-.05-.45-.22,0-.08,.06-.16,.22-.16,.25,0,.58-.06,.83-.11,.56-.11,.7-.7,.81-1.48,.14-1.13,.14-3.25,.14-5.82v-4.72Z"/><path class="cls-3" d="M428.61,90.87c0-4.19,0-4.94-.05-5.8-.06-.91-.28-1.34-1.2-1.53-.22-.05-.7-.08-.95-.08-.11,0-.22-.05-.22-.16,0-.16,.14-.22,.45-.22,1.25,0,2.95,.08,3.2,.08s1.92-.08,2.75-.08c.3,0,.45,.06,.45,.22,0,.11-.11,.16-.22,.16-.2,0-.36,.03-.7,.08-.75,.11-.97,.59-1.03,1.53-.05,.86-.05,1.61-.05,5.8v3.76c0,3.86,.89,5.53,2.08,6.63,1.36,1.23,2.61,1.48,4.2,1.48,1.7,0,3.36-.78,4.36-1.93,1.28-1.53,1.61-3.81,1.61-6.58v-3.35c0-4.19,0-4.94-.05-5.8-.06-.91-.28-1.34-1.2-1.53-.22-.05-.69-.08-.95-.08-.11,0-.22-.05-.22-.16,0-.16,.14-.22,.44-.22,1.25,0,2.78,.08,2.95,.08,.2,0,1.5-.08,2.34-.08,.3,0,.45,.06,.45,.22,0,.11-.11,.16-.22,.16-.2,0-.36,.03-.7,.08-.75,.16-.97,.59-1.03,1.53-.05,.86-.05,1.61-.05,5.8v2.87c0,2.9-.33,6.12-2.56,8.02-2,1.72-4.09,1.99-5.73,1.99-.95,0-3.76-.11-5.73-1.91-1.36-1.26-2.42-3.14-2.42-7.06v-3.92Z"/><path class="cls-3" d="M458.93,95.59c0,2.58,0,4.7,.14,5.82,.08,.78,.25,1.37,1.08,1.48,.39,.05,1,.11,1.25,.11,.17,0,.22,.08,.22,.16,0,.14-.14,.22-.45,.22-1.53,0-3.28-.08-3.42-.08s-1.89,.08-2.73,.08c-.3,0-.44-.05-.44-.22,0-.08,.05-.16,.22-.16,.25,0,.58-.06,.83-.11,.56-.11,.7-.7,.81-1.48,.14-1.13,.14-3.25,.14-5.82v-11.35l-4.11,.06c-1.73,.03-2.39,.21-2.84,.86-.31,.46-.39,.65-.47,.83-.08,.22-.17,.27-.28,.27-.08,0-.14-.08-.14-.24,0-.27,.56-2.58,.61-2.79,.06-.16,.17-.51,.28-.51,.19,0,.47,.27,1.22,.32,.81,.08,1.86,.13,2.2,.13h10.43c.89,0,1.53-.06,1.97-.13,.42-.06,.67-.14,.78-.14,.14,0,.14,.16,.14,.32,0,.8-.08,2.66-.08,2.95,0,.24-.08,.35-.19,.35-.14,0-.2-.08-.22-.46l-.03-.3c-.08-.8-.75-1.42-3.42-1.47l-3.51-.06v11.35Z"/><path class="cls-3" d="M474.72,83.76c.33-.89,.44-1.05,.61-1.05s.28,.13,.61,.96c.42,1.02,4.78,12.1,6.48,16.18,1,2.39,1.81,2.82,2.39,2.98,.42,.13,.83,.16,1.11,.16,.17,0,.28,.03,.28,.16,0,.16-.25,.22-.55,.22-.42,0-2.45,0-4.37-.05-.53-.03-.83-.03-.83-.19,0-.11,.08-.16,.2-.19,.17-.05,.33-.29,.17-.72l-2.59-6.6c-.05-.1-.11-.16-.25-.16h-5.98c-.14,0-.22,.08-.28,.22l-1.67,4.75c-.25,.67-.39,1.32-.39,1.8,0,.54,.58,.78,1.06,.78h.28c.2,0,.28,.05,.28,.16,0,.16-.17,.22-.42,.22-.67,0-1.86-.08-2.17-.08s-1.84,.08-3.14,.08c-.36,0-.53-.05-.53-.22,0-.11,.11-.16,.25-.16,.2,0,.58-.03,.81-.06,1.28-.16,1.83-1.18,2.33-2.52l6.32-16.66Zm2.89,10.73c.14,0,.14-.08,.11-.19l-2.64-7.24c-.14-.4-.28-.4-.42,0l-2.45,7.24c-.06,.13,0,.19,.08,.19h5.31Z"/><path class="cls-3" d="M506.91,95.59c0,2.58,0,4.7,.14,5.82,.08,.78,.25,1.37,1.08,1.48,.39,.05,1,.11,1.25,.11,.17,0,.22,.08,.22,.16,0,.14-.14,.22-.44,.22-1.53,0-3.28-.08-3.42-.08s-1.89,.08-2.73,.08c-.31,0-.45-.05-.45-.22,0-.08,.06-.16,.22-.16,.25,0,.58-.06,.83-.11,.56-.11,.7-.7,.81-1.48,.14-1.13,.14-3.25,.14-5.82v-2.82c0-.11-.08-.16-.17-.16h-11.79c-.08,0-.17,.03-.17,.16v2.82c0,2.58,0,4.7,.14,5.82,.08,.78,.25,1.37,1.08,1.48,.39,.05,1,.11,1.25,.11,.17,0,.22,.08,.22,.16,0,.14-.14,.22-.45,.22-1.53,0-3.28-.08-3.42-.08s-1.89,.08-2.73,.08c-.31,0-.45-.05-.45-.22,0-.08,.06-.16,.22-.16,.25,0,.58-.06,.83-.11,.56-.11,.7-.7,.81-1.48,.14-1.13,.14-3.25,.14-5.82v-4.72c0-4.19,0-4.94-.05-5.8-.06-.91-.28-1.34-1.2-1.53-.22-.05-.7-.08-.95-.08-.11,0-.22-.05-.22-.16,0-.16,.14-.22,.45-.22,1.25,0,3,.08,3.14,.08s1.89-.08,2.73-.08c.31,0,.45,.06,.45,.22,0,.11-.11,.16-.22,.16-.2,0-.36,.03-.7,.08-.75,.13-.97,.59-1.03,1.53-.05,.86-.05,1.61-.05,5.8v.56c0,.13,.08,.16,.17,.16h11.79c.08,0,.17-.03,.17-.16v-.56c0-4.19,0-4.94-.05-5.8-.06-.91-.28-1.34-1.2-1.53-.22-.05-.69-.08-.94-.08-.11,0-.22-.05-.22-.16,0-.16,.14-.22,.44-.22,1.25,0,3.01,.08,3.14,.08s1.89-.08,2.73-.08c.3,0,.45,.06,.45,.22,0,.11-.11,.16-.22,.16-.2,0-.36,.03-.7,.08-.75,.13-.97,.59-1.03,1.53-.05,.86-.05,1.61-.05,5.8v4.72Z"/></g><rect class="cls-1" x="125.75" y="70.32" width="402.87" height="2.04"/></svg>