<?xml version="1.0" encoding="UTF-8"?><svg id="Layer_1" xmlns="http://www.w3.org/2000/svg" viewBox="0 0 613.38 101.76"><defs><style>.cls-1{fill:#676867;}.cls-2,.cls-3{fill:#cb2026;}.cls-4{fill:#231f20;}.cls-3{fill-rule:evenodd;}</style></defs><g><path class="cls-4" d="M149.31,48.38c-.12-3.12-.23-6.89-.23-10.67h-.12c-.81,3.31-1.89,7.01-2.89,10.05l-3.16,10.13h-4.58l-2.77-10.05c-.85-3.04-1.73-6.74-2.35-10.13h-.08c-.15,3.5-.27,7.51-.46,10.75l-.46,9.86h-5.43l1.66-25.96h7.82l2.54,8.67c.81,3,1.62,6.24,2.19,9.28h.12c.73-3,1.62-6.43,2.46-9.32l2.77-8.63h7.66l1.43,25.96h-5.74l-.38-9.94Z"/><path class="cls-4" d="M175.76,47.35h-9.55v6.16h10.67v4.81h-16.56v-25.96h16.02v4.81h-10.13v5.39h9.55v4.78Z"/><path class="cls-4" d="M200.33,57.59c-1.08,.54-3.5,1.12-6.66,1.12-8.97,0-13.59-5.58-13.59-12.98,0-8.86,6.32-13.79,14.17-13.79,3.04,0,5.35,.62,6.39,1.16l-1.19,4.66c-1.19-.5-2.85-.96-4.93-.96-4.66,0-8.28,2.81-8.28,8.59,0,5.2,3.08,8.47,8.32,8.47,1.77,0,3.74-.38,4.89-.85l.89,4.58Z"/><path class="cls-4" d="M210.46,32.36v9.98h9.67v-9.98h5.85v25.96h-5.85v-10.86h-9.67v10.86h-5.89v-25.96h5.89Z"/><path class="cls-4" d="M237.53,51.66l-1.85,6.66h-6.08l7.93-25.96h7.7l8.05,25.96h-6.32l-2-6.66h-7.43Zm6.59-4.39l-1.62-5.51c-.46-1.54-.92-3.47-1.31-5.01h-.08c-.39,1.54-.77,3.5-1.19,5.01l-1.54,5.51h5.74Z"/><path class="cls-4" d="M257.12,58.32v-25.96h6.86l5.39,9.51c1.54,2.73,3.08,5.97,4.24,8.9h.12c-.38-3.43-.5-6.93-.5-10.82v-7.59h5.39v25.96h-6.16l-5.55-10.01c-1.54-2.77-3.24-6.12-4.51-9.17l-.12,.04c.15,3.43,.23,7.09,.23,11.32v7.82h-5.39Z"/><path class="cls-4" d="M289.97,32.36v25.96h-5.89v-25.96h5.89Z"/><path class="cls-4" d="M314.5,57.59c-1.08,.54-3.5,1.12-6.66,1.12-8.97,0-13.6-5.58-13.6-12.98,0-8.86,6.32-13.79,14.17-13.79,3.04,0,5.35,.62,6.39,1.16l-1.19,4.66c-1.19-.5-2.85-.96-4.93-.96-4.66,0-8.28,2.81-8.28,8.59,0,5.2,3.08,8.47,8.32,8.47,1.77,0,3.74-.38,4.89-.85l.89,4.58Z"/><path class="cls-4" d="M325.17,51.66l-1.85,6.66h-6.09l7.93-25.96h7.7l8.05,25.96h-6.32l-2-6.66h-7.43Zm6.58-4.39l-1.62-5.51c-.46-1.54-.92-3.47-1.31-5.01h-.08c-.38,1.54-.77,3.5-1.19,5.01l-1.54,5.51h5.74Z"/><path class="cls-4" d="M344.76,32.36h5.89v21.03h10.32v4.93h-16.21v-25.96Z"/><path class="cls-4" d="M388.43,47.35h-9.55v6.16h10.67v4.81h-16.56v-25.96h16.02v4.81h-10.13v5.39h9.55v4.78Z"/><path class="cls-4" d="M393.94,58.32v-25.96h6.86l5.39,9.51c1.54,2.73,3.08,5.97,4.24,8.9h.12c-.38-3.43-.5-6.93-.5-10.82v-7.59h5.39v25.96h-6.16l-5.55-10.01c-1.54-2.77-3.24-6.12-4.51-9.17l-.12,.04c.15,3.43,.23,7.09,.23,11.32v7.82h-5.39Z"/><path class="cls-4" d="M442.57,57.13c-1.81,.62-5.24,1.46-8.67,1.46-4.74,0-8.17-1.19-10.55-3.5-2.39-2.23-3.7-5.62-3.66-9.44,.04-8.63,6.32-13.56,14.83-13.56,3.35,0,5.93,.65,7.2,1.27l-1.23,4.7c-1.43-.62-3.2-1.12-6.05-1.12-4.89,0-8.59,2.77-8.59,8.4s3.35,8.51,8.17,8.51c1.35,0,2.43-.15,2.89-.38v-5.43h-4.01v-4.58h9.67v13.67Z"/><path class="cls-4" d="M453.43,32.36v25.96h-5.89v-25.96h5.89Z"/><path class="cls-4" d="M458.9,58.32v-25.96h6.86l5.39,9.51c1.54,2.73,3.08,5.97,4.24,8.9h.12c-.38-3.43-.5-6.93-.5-10.82v-7.59h5.39v25.96h-6.16l-5.55-10.01c-1.54-2.77-3.24-6.12-4.51-9.17l-.12,.04c.15,3.43,.23,7.09,.23,11.32v7.82h-5.39Z"/><path class="cls-4" d="M501.29,47.35h-9.55v6.16h10.67v4.81h-16.56v-25.96h16.02v4.81h-10.13v5.39h9.55v4.78Z"/><path class="cls-4" d="M522.24,47.35h-9.55v6.16h10.67v4.81h-16.56v-25.96h16.02v4.81h-10.13v5.39h9.55v4.78Z"/><path class="cls-4" d="M527.74,32.71c1.89-.31,4.7-.54,7.82-.54,3.85,0,6.55,.58,8.4,2.04,1.54,1.23,2.39,3.04,2.39,5.43,0,3.31-2.35,5.58-4.58,6.39v.12c1.81,.73,2.81,2.46,3.47,4.85,.81,2.93,1.62,6.32,2.12,7.32h-6.01c-.42-.73-1.04-2.85-1.81-6.05-.69-3.24-1.81-4.12-4.2-4.16h-1.77v10.21h-5.82v-25.61Zm5.82,11.17h2.31c2.93,0,4.66-1.46,4.66-3.74,0-2.39-1.62-3.58-4.31-3.62-1.42,0-2.23,.12-2.66,.19v7.16Z"/><path class="cls-4" d="M556.86,32.36v25.96h-5.89v-25.96h5.89Z"/><path class="cls-4" d="M562.32,58.32v-25.96h6.86l5.39,9.51c1.54,2.73,3.08,5.97,4.24,8.9h.12c-.38-3.43-.5-6.93-.5-10.82v-7.59h5.39v25.96h-6.16l-5.55-10.01c-1.54-2.77-3.24-6.12-4.51-9.17l-.12,.04c.15,3.43,.23,7.09,.23,11.32v7.82h-5.39Z"/><path class="cls-4" d="M610.96,57.13c-1.81,.62-5.24,1.46-8.67,1.46-4.74,0-8.17-1.19-10.55-3.5-2.39-2.23-3.7-5.62-3.66-9.44,.04-8.63,6.32-13.56,14.83-13.56,3.35,0,5.93,.65,7.2,1.27l-1.23,4.7c-1.43-.62-3.2-1.12-6.05-1.12-4.89,0-8.59,2.77-8.59,8.4s3.35,8.51,8.17,8.51c1.35,0,2.43-.15,2.89-.38v-5.43h-4.01v-4.58h9.67v13.67Z"/></g><g><path class="cls-2" d="M102.54,100.28c-.99,.99-2.18,1.49-3.58,1.49s-2.59-.5-3.58-1.49c-.98-.99-1.47-2.18-1.47-3.59s.49-2.58,1.48-3.57c.98-.98,2.17-1.47,3.56-1.47s2.59,.49,3.58,1.47c.99,.98,1.48,2.17,1.48,3.57s-.49,2.59-1.48,3.59Zm-6.65-6.66c-.85,.85-1.27,1.87-1.27,3.08s.42,2.25,1.26,3.1c.85,.85,1.87,1.28,3.08,1.28s2.23-.43,3.08-1.28c.85-.85,1.27-1.89,1.27-3.1s-.42-2.23-1.27-3.08c-.85-.85-1.88-1.28-3.08-1.28s-2.22,.43-3.07,1.28Zm2.98,.28c.69,0,1.19,.07,1.52,.2,.57,.24,.86,.71,.86,1.41,0,.5-.18,.86-.54,1.1-.19,.12-.46,.21-.8,.27,.43,.07,.75,.25,.95,.54,.2,.29,.3,.58,.3,.86v.41c0,.13,0,.26,.01,.41s.03,.24,.05,.29l.03,.07h-.92s0-.04-.01-.06c0-.02,0-.04-.01-.06l-.02-.18v-.44c0-.64-.17-1.06-.52-1.27-.21-.12-.57-.18-1.09-.18h-.77v2.18h-.98v-5.55h1.94Zm1.06,.88c-.25-.14-.64-.21-1.18-.21h-.84v2.01h.88c.42,0,.73-.04,.93-.12,.38-.15,.57-.44,.57-.87,0-.4-.12-.68-.37-.81Z"/><polygon class="cls-3" points="0 0 0 30.24 10.08 30.24 10.08 80.5 30.24 100.52 80.37 100.52 100.53 80.5 100.53 30.24 110.61 30.24 110.61 0 60.34 0 60.34 30.24 70.43 30.24 70.43 70.29 40.19 70.29 40.19 30.24 50.26 30.24 50.26 0 0 0"/></g><g><path class="cls-4" d="M137.03,91.75c0,2.58,0,4.7,.14,5.82,.08,.78,.25,1.37,1.08,1.48,.39,.05,1,.11,1.25,.11,.17,0,.22,.08,.22,.16,0,.14-.14,.22-.45,.22-1.53,0-3.28-.08-3.42-.08s-1.89,.08-2.73,.08c-.31,0-.45-.05-.45-.22,0-.08,.06-.16,.22-.16,.25,0,.58-.06,.83-.11,.56-.11,.7-.7,.81-1.48,.14-1.13,.14-3.25,.14-5.82v-11.35l-4.12,.06c-1.73,.03-2.39,.21-2.84,.86-.31,.46-.39,.65-.47,.83-.08,.22-.17,.27-.28,.27-.08,0-.14-.08-.14-.24,0-.27,.56-2.58,.61-2.79,.06-.16,.17-.51,.28-.51,.19,0,.47,.27,1.22,.32,.81,.08,1.86,.13,2.2,.13h10.43c.89,0,1.53-.06,1.97-.13,.42-.06,.67-.14,.78-.14,.14,0,.14,.16,.14,.32,0,.8-.08,2.66-.08,2.95,0,.24-.08,.35-.2,.35-.14,0-.19-.08-.22-.46l-.03-.3c-.08-.8-.75-1.42-3.42-1.47l-3.5-.06v11.35Z"/><path class="cls-4" d="M166.33,91.75c0,2.58,0,4.7,.14,5.82,.08,.78,.25,1.37,1.08,1.48,.39,.05,1,.11,1.25,.11,.17,0,.22,.08,.22,.16,0,.14-.14,.22-.45,.22-1.53,0-3.28-.08-3.42-.08s-1.89,.08-2.73,.08c-.31,0-.45-.05-.45-.22,0-.08,.06-.16,.22-.16,.25,0,.58-.06,.83-.11,.56-.11,.7-.7,.81-1.48,.14-1.13,.14-3.25,.14-5.82v-2.82c0-.11-.08-.16-.17-.16h-11.79c-.08,0-.17,.03-.17,.16v2.82c0,2.58,0,4.7,.14,5.82,.08,.78,.25,1.37,1.08,1.48,.39,.05,1,.11,1.25,.11,.17,0,.22,.08,.22,.16,0,.14-.14,.22-.44,.22-1.53,0-3.28-.08-3.42-.08s-1.89,.08-2.73,.08c-.31,0-.45-.05-.45-.22,0-.08,.06-.16,.22-.16,.25,0,.58-.06,.83-.11,.56-.11,.7-.7,.81-1.48,.14-1.13,.14-3.25,.14-5.82v-4.72c0-4.19,0-4.94-.06-5.8-.06-.91-.28-1.34-1.2-1.53-.22-.05-.7-.08-.95-.08-.11,0-.22-.05-.22-.16,0-.16,.14-.22,.45-.22,1.25,0,3,.08,3.14,.08s1.89-.08,2.73-.08c.31,0,.44,.06,.44,.22,0,.11-.11,.16-.22,.16-.2,0-.36,.03-.7,.08-.75,.13-.97,.59-1.03,1.53-.06,.86-.06,1.61-.06,5.8v.56c0,.13,.08,.16,.17,.16h11.79c.08,0,.17-.03,.17-.16v-.56c0-4.19,0-4.94-.06-5.8-.06-.91-.28-1.34-1.2-1.53-.22-.05-.7-.08-.95-.08-.11,0-.22-.05-.22-.16,0-.16,.14-.22,.45-.22,1.25,0,3,.08,3.14,.08s1.89-.08,2.73-.08c.31,0,.44,.06,.44,.22,0,.11-.11,.16-.22,.16-.19,0-.36,.03-.69,.08-.75,.13-.97,.59-1.03,1.53-.06,.86-.06,1.61-.06,5.8v4.72Z"/><path class="cls-4" d="M174.61,87.03c0-4.19,0-4.94-.06-5.8-.06-.91-.28-1.34-1.2-1.53-.22-.05-.7-.08-.95-.08-.11,0-.22-.05-.22-.16,0-.16,.14-.22,.44-.22,.64,0,1.39,0,2,.03l1.14,.06c.2,0,5.73,0,6.37-.03,.53-.03,.97-.08,1.2-.14,.14-.03,.25-.13,.39-.13,.08,0,.11,.11,.11,.24,0,.19-.14,.51-.22,1.26-.03,.27-.08,1.45-.14,1.77-.03,.13-.08,.29-.19,.29-.17,0-.22-.13-.22-.35,0-.19-.03-.64-.17-.96-.19-.43-.47-.75-1.97-.91-.47-.06-3.5-.08-3.81-.08-.11,0-.17,.08-.17,.27v7.4c0,.19,.03,.27,.17,.27,.36,0,3.78,0,4.42-.06,.67-.05,1.06-.11,1.31-.37,.2-.22,.31-.35,.42-.35,.08,0,.14,.05,.14,.22s-.14,.62-.22,1.5c-.06,.53-.11,1.53-.11,1.72,0,.22,0,.51-.19,.51-.14,0-.19-.11-.19-.24,0-.27,0-.54-.11-.89-.11-.37-.36-.83-1.45-.94-.75-.08-3.5-.13-3.98-.13-.14,0-.19,.08-.19,.19v2.36c0,.91-.03,4.02,0,4.59,.08,1.85,.5,2.2,3.23,2.2,.72,0,1.95,0,2.67-.3,.72-.3,1.06-.83,1.25-1.93,.05-.29,.11-.4,.25-.4,.17,0,.17,.21,.17,.4,0,.22-.22,2.04-.36,2.6-.19,.7-.42,.7-1.5,.7-2.09,0-3.62-.06-4.7-.08-1.08-.05-1.75-.08-2.17-.08-.06,0-.53,0-1.11,.03-.56,0-1.2,.05-1.61,.05-.31,0-.44-.05-.44-.22,0-.08,.06-.16,.22-.16,.25,0,.58-.06,.83-.11,.56-.11,.69-.7,.81-1.48,.14-1.13,.14-3.25,.14-5.82v-4.72Z"/><path class="cls-4" d="M196.79,87.03c0-4.19,0-4.94-.06-5.8-.06-.91-.28-1.34-1.2-1.53-.22-.05-.69-.08-.95-.08-.11,0-.22-.05-.22-.16,0-.16,.14-.22,.44-.22,1.25,0,2.95,.08,3.2,.08s1.92-.08,2.75-.08c.31,0,.44,.06,.44,.22,0,.11-.11,.16-.22,.16-.19,0-.36,.03-.69,.08-.75,.11-.97,.59-1.03,1.53-.06,.86-.06,1.61-.06,5.8v3.76c0,3.86,.89,5.53,2.09,6.63,1.36,1.23,2.62,1.48,4.2,1.48,1.7,0,3.37-.78,4.37-1.93,1.28-1.53,1.61-3.81,1.61-6.58v-3.35c0-4.19,0-4.94-.06-5.8-.06-.91-.28-1.34-1.2-1.53-.22-.05-.7-.08-.95-.08-.11,0-.22-.05-.22-.16,0-.16,.14-.22,.45-.22,1.25,0,2.78,.08,2.95,.08,.2,0,1.5-.08,2.34-.08,.31,0,.44,.06,.44,.22,0,.11-.11,.16-.22,.16-.2,0-.36,.03-.7,.08-.75,.16-.97,.59-1.03,1.53-.05,.86-.05,1.61-.05,5.8v2.87c0,2.9-.33,6.12-2.56,8.02-2,1.72-4.09,1.99-5.73,1.99-.95,0-3.75-.11-5.73-1.91-1.36-1.26-2.42-3.14-2.42-7.06v-3.92Z"/><path class="cls-4" d="M220.5,95.88c.06,2.2,.33,2.9,1.09,3.12,.53,.13,1.14,.16,1.39,.16,.14,0,.22,.05,.22,.16,0,.16-.17,.22-.5,.22-1.58,0-2.7-.08-2.95-.08s-1.42,.08-2.67,.08c-.28,0-.45-.03-.45-.22,0-.11,.08-.16,.22-.16,.22,0,.72-.03,1.14-.16,.7-.19,.83-.97,.83-3.41l.03-15.38c0-1.05,.08-1.34,.31-1.34s.7,.59,.97,.86c.42,.46,4.56,4.78,8.84,9.21,2.75,2.84,5.79,6.12,6.68,7l-.31-13.63c-.03-1.74-.22-2.34-1.09-2.55-.5-.11-1.14-.14-1.36-.14-.2,0-.22-.08-.22-.19,0-.16,.22-.19,.56-.19,1.25,0,2.59,.08,2.89,.08s1.22-.08,2.36-.08c.31,0,.5,.03,.5,.19,0,.11-.11,.19-.31,.19-.14,0-.33,0-.67,.08-.92,.19-1.03,.78-1.03,2.39l-.06,15.72c0,1.77-.05,1.91-.25,1.91-.22,0-.56-.3-2.03-1.72-.31-.27-4.31-4.21-7.26-7.27-3.23-3.35-6.37-6.73-7.26-7.7l.36,12.85Z"/><path class="cls-4" d="M246.9,91.75c0,2.58,0,4.7,.14,5.82,.08,.78,.25,1.37,1.09,1.48,.39,.05,1,.11,1.25,.11,.17,0,.22,.08,.22,.16,0,.14-.14,.22-.44,.22-1.53,0-3.28-.08-3.42-.08s-1.89,.08-2.73,.08c-.31,0-.44-.05-.44-.22,0-.08,.06-.16,.22-.16,.25,0,.58-.06,.83-.11,.56-.11,.69-.7,.81-1.48,.14-1.13,.14-3.25,.14-5.82v-4.72c0-4.19,0-4.94-.06-5.8-.06-.91-.33-1.37-.95-1.5-.31-.08-.67-.11-.86-.11-.11,0-.22-.05-.22-.16,0-.16,.14-.22,.45-.22,.92,0,2.67,.08,2.81,.08s1.89-.08,2.73-.08c.31,0,.45,.06,.45,.22,0,.11-.11,.16-.22,.16-.19,0-.36,.03-.7,.08-.75,.13-.97,.59-1.03,1.53-.06,.86-.06,1.61-.06,5.8v4.72Z"/><path class="cls-4" d="M262.61,96.26c1.61-3.6,5.34-12.96,5.95-14.89,.14-.4,.25-.78,.25-1.02,0-.22-.08-.49-.36-.62-.33-.11-.75-.11-1.06-.11-.17,0-.3-.03-.3-.16,0-.16,.17-.22,.61-.22,1.11,0,2.39,.08,2.73,.08,.17,0,1.36-.08,2.17-.08,.31,0,.47,.06,.47,.19s-.11,.19-.33,.19c-.19,0-.8,0-1.33,.32-.36,.24-.78,.7-1.53,2.52-.3,.75-1.7,3.97-3.11,7.27-1.7,3.92-2.95,6.81-3.59,8.13-.78,1.61-.89,2.04-1.17,2.04-.33,0-.47-.38-1-1.67l-6.82-16.45c-.61-1.5-1.03-1.8-2-2.07-.42-.11-.89-.11-1.06-.11s-.22-.08-.22-.19c0-.16,.28-.19,.72-.19,1.34,0,2.92,.08,3.25,.08,.28,0,1.53-.08,2.59-.08,.5,0,.75,.06,.75,.19s-.08,.19-.28,.19c-.31,0-.81,.03-1.06,.14-.31,.13-.36,.35-.36,.53,0,.35,.33,1.18,.75,2.23l5.34,13.74Z"/><path class="cls-4" d="M277.26,87.03c0-4.19,0-4.94-.06-5.8-.05-.91-.28-1.34-1.2-1.53-.22-.05-.7-.08-.95-.08-.11,0-.22-.05-.22-.16,0-.16,.14-.22,.45-.22,.64,0,1.39,0,2,.03l1.14,.06c.2,0,5.73,0,6.37-.03,.53-.03,.97-.08,1.2-.14,.14-.03,.25-.13,.39-.13,.08,0,.11,.11,.11,.24,0,.19-.14,.51-.22,1.26-.03,.27-.08,1.45-.14,1.77-.03,.13-.08,.29-.19,.29-.17,0-.22-.13-.22-.35,0-.19-.03-.64-.17-.96-.19-.43-.47-.75-1.97-.91-.47-.06-3.51-.08-3.81-.08-.11,0-.17,.08-.17,.27v7.4c0,.19,.03,.27,.17,.27,.36,0,3.78,0,4.42-.06,.67-.05,1.06-.11,1.31-.37,.2-.22,.3-.35,.42-.35,.08,0,.14,.05,.14,.22s-.14,.62-.22,1.5c-.06,.53-.11,1.53-.11,1.72,0,.22,0,.51-.2,.51-.14,0-.19-.11-.19-.24,0-.27,0-.54-.11-.89-.11-.37-.36-.83-1.45-.94-.75-.08-3.5-.13-3.98-.13-.14,0-.2,.08-.2,.19v2.36c0,.91-.03,4.02,0,4.59,.08,1.85,.5,2.2,3.23,2.2,.73,0,1.95,0,2.67-.3s1.06-.83,1.25-1.93c.06-.29,.11-.4,.25-.4,.17,0,.17,.21,.17,.4,0,.22-.22,2.04-.36,2.6-.2,.7-.42,.7-1.5,.7-2.08,0-3.61-.06-4.7-.08-1.08-.05-1.75-.08-2.17-.08-.05,0-.53,0-1.11,.03-.56,0-1.2,.05-1.61,.05-.3,0-.44-.05-.44-.22,0-.08,.05-.16,.22-.16,.25,0,.58-.06,.83-.11,.55-.11,.69-.7,.8-1.48,.14-1.13,.14-3.25,.14-5.82v-4.72Z"/><path class="cls-4" d="M292.5,87.03c0-4.19,0-4.94-.06-5.8-.05-.91-.28-1.34-1.2-1.53-.22-.05-.7-.08-.95-.08-.11,0-.22-.05-.22-.16,0-.16,.14-.22,.44-.22,1.25,0,3.01,.08,3.14,.08,.3,0,2.42-.08,3.28-.08,1.75,0,3.62,.16,5.09,1.18,.7,.49,1.92,1.8,1.92,3.65,0,1.99-.86,3.97-3.36,6.2,2.28,2.82,4.17,5.21,5.79,6.87,1.5,1.53,2.7,1.82,3.39,1.93,.53,.08,.92,.08,1.09,.08,.14,0,.25,.08,.25,.16,0,.16-.17,.22-.67,.22h-1.98c-1.56,0-2.25-.13-2.98-.51-1.2-.62-2.17-1.93-3.75-3.95-1.17-1.48-2.48-3.27-3.03-3.97-.11-.11-.19-.16-.36-.16l-3.42-.05c-.14,0-.19,.08-.19,.22v.64c0,2.58,0,4.7,.14,5.82,.08,.78,.25,1.37,1.08,1.48,.39,.05,1,.11,1.25,.11,.17,0,.22,.08,.22,.16,0,.14-.14,.22-.44,.22-1.53,0-3.28-.08-3.42-.08-.03,0-1.78,.08-2.61,.08-.31,0-.45-.05-.45-.22,0-.08,.05-.16,.22-.16,.25,0,.58-.06,.83-.11,.56-.11,.7-.7,.81-1.48,.14-1.13,.14-3.25,.14-5.82v-4.72Zm2.23,2.33c0,.14,.05,.24,.19,.32,.42,.24,1.7,.43,2.92,.43,.67,0,1.45-.08,2.08-.51,.98-.65,1.7-2.1,1.7-4.13,0-3.35-1.84-5.36-4.81-5.36-.83,0-1.58,.08-1.86,.16-.14,.05-.22,.16-.22,.32v8.77Z"/><path class="cls-4" d="M312.45,99.18c-.39-.19-.42-.29-.42-1.02,0-1.34,.11-2.41,.14-2.84,.03-.29,.08-.43,.22-.43,.17,0,.19,.08,.19,.29,0,.24,0,.62,.08,.99,.42,1.98,2.25,2.74,4.12,2.74,2.67,0,3.98-1.85,3.98-3.57,0-1.85-.8-2.93-3.2-4.83l-1.25-.99c-2.95-2.34-3.62-4-3.62-5.82,0-2.87,2.23-4.83,5.76-4.83,1.08,0,1.89,.11,2.59,.27,.53,.11,.75,.13,.97,.13s.28,.06,.28,.19-.11,1.02-.11,2.84c0,.43-.05,.62-.19,.62-.17,0-.2-.13-.22-.35-.03-.32-.2-1.05-.36-1.34-.17-.29-.92-1.42-3.48-1.42-1.92,0-3.42,1.15-3.42,3.11,0,1.53,.72,2.5,3.39,4.51l.78,.59c3.28,2.49,4.06,4.16,4.06,6.31,0,1.1-.45,3.14-2.36,4.45-1.2,.8-2.7,1.13-4.2,1.13-1.31,0-2.59-.19-3.73-.73Z"/><path class="cls-4" d="M330.51,91.75c0,2.58,0,4.7,.14,5.82,.08,.78,.25,1.37,1.08,1.48,.39,.05,1,.11,1.25,.11,.17,0,.22,.08,.22,.16,0,.14-.14,.22-.45,.22-1.53,0-3.28-.08-3.42-.08s-1.89,.08-2.73,.08c-.3,0-.44-.05-.44-.22,0-.08,.05-.16,.22-.16,.25,0,.58-.06,.84-.11,.55-.11,.69-.7,.8-1.48,.14-1.13,.14-3.25,.14-5.82v-4.72c0-4.19,0-4.94-.05-5.8-.05-.91-.33-1.37-.95-1.5-.31-.08-.67-.11-.86-.11-.11,0-.22-.05-.22-.16,0-.16,.14-.22,.45-.22,.92,0,2.67,.08,2.81,.08s1.89-.08,2.73-.08c.31,0,.45,.06,.45,.22,0,.11-.11,.16-.22,.16-.19,0-.36,.03-.7,.08-.75,.13-.97,.59-1.03,1.53-.06,.86-.06,1.61-.06,5.8v4.72Z"/><path class="cls-4" d="M345.19,91.75c0,2.58,0,4.7,.14,5.82,.08,.78,.25,1.37,1.08,1.48,.39,.05,1,.11,1.25,.11,.17,0,.22,.08,.22,.16,0,.14-.14,.22-.45,.22-1.53,0-3.28-.08-3.42-.08s-1.89,.08-2.73,.08c-.3,0-.45-.05-.45-.22,0-.08,.06-.16,.22-.16,.25,0,.58-.06,.83-.11,.56-.11,.7-.7,.81-1.48,.14-1.13,.14-3.25,.14-5.82v-11.35l-4.11,.06c-1.73,.03-2.39,.21-2.84,.86-.31,.46-.39,.65-.47,.83-.08,.22-.17,.27-.28,.27-.08,0-.14-.08-.14-.24,0-.27,.56-2.58,.61-2.79,.06-.16,.17-.51,.28-.51,.19,0,.47,.27,1.22,.32,.81,.08,1.86,.13,2.2,.13h10.43c.89,0,1.53-.06,1.98-.13,.42-.06,.67-.14,.78-.14,.14,0,.14,.16,.14,.32,0,.8-.08,2.66-.08,2.95,0,.24-.08,.35-.2,.35-.14,0-.19-.08-.22-.46l-.03-.3c-.08-.8-.75-1.42-3.42-1.47l-3.5-.06v11.35Z"/><path class="cls-4" d="M362.44,92.58c0-1.45-.28-2.04-.64-2.82-.2-.43-3.92-6.33-4.89-7.73-.7-.99-1.39-1.66-1.89-1.98-.42-.27-.95-.43-1.2-.43-.14,0-.28-.05-.28-.19,0-.11,.11-.19,.36-.19,.53,0,2.61,.08,2.75,.08,.2,0,1.25-.08,2.34-.08,.31,0,.36,.08,.36,.19s-.17,.13-.42,.24c-.22,.11-.36,.27-.36,.48,0,.32,.14,.65,.36,1.05,.44,.78,4.62,7.7,5.12,8.48,.53-1.13,4.06-7,4.62-7.89,.36-.56,.47-1.02,.47-1.37,0-.37-.11-.67-.45-.75-.25-.08-.42-.13-.42-.27,0-.1,.17-.16,.45-.16,.72,0,1.61,.08,1.84,.08,.17,0,2.17-.08,2.7-.08,.2,0,.36,.06,.36,.16,0,.14-.14,.22-.36,.22-.3,0-.83,.11-1.28,.38-.56,.32-.86,.64-1.48,1.37-.92,1.07-4.81,7.38-5.31,8.53-.42,.97-.42,1.8-.42,2.68v2.31c0,.43,0,1.55,.08,2.68,.05,.78,.3,1.37,1.14,1.48,.39,.05,1,.11,1.25,.11,.17,0,.22,.08,.22,.16,0,.14-.14,.22-.45,.22-1.53,0-3.28-.08-3.42-.08s-1.89,.08-2.73,.08c-.31,0-.45-.05-.45-.22,0-.08,.06-.16,.22-.16,.25,0,.58-.06,.83-.11,.56-.11,.81-.7,.86-1.48,.08-1.13,.08-2.25,.08-2.68v-2.31Z"/><path class="cls-4" d="M392.15,78.87c6.26,0,10.93,3.81,10.93,10.06s-4.39,10.98-11.1,10.98c-7.62,0-10.79-5.72-10.79-10.55,0-4.35,3.28-10.49,10.96-10.49Zm.58,20.02c2.5,0,7.68-1.4,7.68-9.21,0-6.44-4.06-9.9-8.45-9.9-4.64,0-8.12,2.95-8.12,8.83,0,6.25,3.89,10.28,8.9,10.28Z"/><path class="cls-4" d="M407.93,87.03c0-4.19,0-4.94-.05-5.8-.06-.91-.28-1.34-1.2-1.53-.22-.05-.69-.08-.94-.08-.11,0-.22-.05-.22-.16,0-.16,.14-.22,.44-.22,.64,0,1.39,0,2,.03l1.14,.06c.56,.03,6.2,0,6.84-.03,.53-.03,.97-.03,1.22-.11,.17-.06,.28-.16,.39-.16s.17,.11,.17,.24c0,.19-.14,.51-.22,1.26-.03,.27-.08,1.45-.14,1.77-.03,.13-.08,.29-.22,.29s-.2-.13-.2-.32c0-.22-.08-.67-.25-1.02-.17-.35-.81-.83-1.89-.86l-4.28-.08c-.17,0-.25,.08-.25,.3v7.41c0,.16,.03,.24,.19,.24l3.56-.03c.47,0,.86,0,1.25-.03,.67-.05,1.03-.13,1.28-.48,.11-.13,.19-.27,.3-.27s.14,.08,.14,.22c0,.16-.14,.62-.22,1.5-.06,.53-.11,1.61-.11,1.8,0,.24,0,.51-.2,.51-.14,0-.2-.11-.2-.24-.03-.27-.05-.65-.17-.97-.14-.37-.58-.86-1.45-.96-.7-.08-3.73-.08-4.2-.08-.14,0-.19,.06-.19,.24v2.28c0,2.58,0,4.7,.14,5.82,.08,.78,.25,1.37,1.08,1.48,.39,.05,1,.11,1.25,.11,.17,0,.22,.08,.22,.16,0,.14-.14,.22-.44,.22-1.53,0-3.28-.08-3.42-.08s-1.89,.08-2.73,.08c-.31,0-.45-.05-.45-.22,0-.08,.06-.16,.22-.16,.25,0,.58-.06,.83-.11,.56-.11,.7-.7,.81-1.48,.14-1.13,.14-3.25,.14-5.82v-4.72Z"/><path class="cls-4" d="M429.61,87.03c0-4.19,0-4.94-.05-5.8-.06-.91-.28-1.34-1.2-1.53-.22-.05-.7-.08-.95-.08-.11,0-.22-.05-.22-.16,0-.16,.14-.22,.45-.22,1.25,0,2.95,.08,3.2,.08s1.92-.08,2.75-.08c.3,0,.45,.06,.45,.22,0,.11-.11,.16-.22,.16-.2,0-.36,.03-.7,.08-.75,.11-.97,.59-1.03,1.53-.05,.86-.05,1.61-.05,5.8v3.76c0,3.86,.89,5.53,2.08,6.63,1.36,1.23,2.61,1.48,4.2,1.48,1.7,0,3.36-.78,4.36-1.93,1.28-1.53,1.61-3.81,1.61-6.58v-3.35c0-4.19,0-4.94-.05-5.8-.06-.91-.28-1.34-1.2-1.53-.22-.05-.69-.08-.95-.08-.11,0-.22-.05-.22-.16,0-.16,.14-.22,.44-.22,1.25,0,2.78,.08,2.95,.08,.2,0,1.5-.08,2.34-.08,.3,0,.45,.06,.45,.22,0,.11-.11,.16-.22,.16-.2,0-.36,.03-.7,.08-.75,.16-.97,.59-1.03,1.53-.05,.86-.05,1.61-.05,5.8v2.87c0,2.9-.33,6.12-2.56,8.02-2,1.72-4.09,1.99-5.73,1.99-.95,0-3.76-.11-5.73-1.91-1.36-1.26-2.42-3.14-2.42-7.06v-3.92Z"/><path class="cls-4" d="M459.93,91.75c0,2.58,0,4.7,.14,5.82,.08,.78,.25,1.37,1.08,1.48,.39,.05,1,.11,1.25,.11,.17,0,.22,.08,.22,.16,0,.14-.14,.22-.45,.22-1.53,0-3.28-.08-3.42-.08s-1.89,.08-2.73,.08c-.3,0-.44-.05-.44-.22,0-.08,.05-.16,.22-.16,.25,0,.58-.06,.83-.11,.56-.11,.7-.7,.81-1.48,.14-1.13,.14-3.25,.14-5.82v-11.35l-4.11,.06c-1.73,.03-2.39,.21-2.84,.86-.31,.46-.39,.65-.47,.83-.08,.22-.17,.27-.28,.27-.08,0-.14-.08-.14-.24,0-.27,.56-2.58,.61-2.79,.06-.16,.17-.51,.28-.51,.19,0,.47,.27,1.22,.32,.81,.08,1.86,.13,2.2,.13h10.43c.89,0,1.53-.06,1.97-.13,.42-.06,.67-.14,.78-.14,.14,0,.14,.16,.14,.32,0,.8-.08,2.66-.08,2.95,0,.24-.08,.35-.19,.35-.14,0-.2-.08-.22-.46l-.03-.3c-.08-.8-.75-1.42-3.42-1.47l-3.51-.06v11.35Z"/><path class="cls-4" d="M475.72,79.92c.33-.89,.44-1.05,.61-1.05s.28,.13,.61,.96c.42,1.02,4.78,12.1,6.48,16.18,1,2.39,1.81,2.82,2.39,2.98,.42,.13,.83,.16,1.11,.16,.17,0,.28,.03,.28,.16,0,.16-.25,.22-.55,.22-.42,0-2.45,0-4.37-.05-.53-.03-.83-.03-.83-.19,0-.11,.08-.16,.2-.19,.17-.05,.33-.29,.17-.72l-2.59-6.6c-.05-.1-.11-.16-.25-.16h-5.98c-.14,0-.22,.08-.28,.22l-1.67,4.75c-.25,.67-.39,1.32-.39,1.8,0,.54,.58,.78,1.06,.78h.28c.2,0,.28,.05,.28,.16,0,.16-.17,.22-.42,.22-.67,0-1.86-.08-2.17-.08s-1.84,.08-3.14,.08c-.36,0-.53-.05-.53-.22,0-.11,.11-.16,.25-.16,.2,0,.58-.03,.81-.06,1.28-.16,1.83-1.18,2.33-2.52l6.32-16.66Zm2.89,10.73c.14,0,.14-.08,.11-.19l-2.64-7.24c-.14-.4-.28-.4-.42,0l-2.45,7.24c-.06,.13,0,.19,.08,.19h5.31Z"/><path class="cls-4" d="M507.91,91.75c0,2.58,0,4.7,.14,5.82,.08,.78,.25,1.37,1.08,1.48,.39,.05,1,.11,1.25,.11,.17,0,.22,.08,.22,.16,0,.14-.14,.22-.44,.22-1.53,0-3.28-.08-3.42-.08s-1.89,.08-2.73,.08c-.31,0-.45-.05-.45-.22,0-.08,.06-.16,.22-.16,.25,0,.58-.06,.83-.11,.56-.11,.7-.7,.81-1.48,.14-1.13,.14-3.25,.14-5.82v-2.82c0-.11-.08-.16-.17-.16h-11.79c-.08,0-.17,.03-.17,.16v2.82c0,2.58,0,4.7,.14,5.82,.08,.78,.25,1.37,1.08,1.48,.39,.05,1,.11,1.25,.11,.17,0,.22,.08,.22,.16,0,.14-.14,.22-.45,.22-1.53,0-3.28-.08-3.42-.08s-1.89,.08-2.73,.08c-.31,0-.45-.05-.45-.22,0-.08,.06-.16,.22-.16,.25,0,.58-.06,.83-.11,.56-.11,.7-.7,.81-1.48,.14-1.13,.14-3.25,.14-5.82v-4.72c0-4.19,0-4.94-.05-5.8-.06-.91-.28-1.34-1.2-1.53-.22-.05-.7-.08-.95-.08-.11,0-.22-.05-.22-.16,0-.16,.14-.22,.45-.22,1.25,0,3,.08,3.14,.08s1.89-.08,2.73-.08c.31,0,.45,.06,.45,.22,0,.11-.11,.16-.22,.16-.2,0-.36,.03-.7,.08-.75,.13-.97,.59-1.03,1.53-.05,.86-.05,1.61-.05,5.8v.56c0,.13,.08,.16,.17,.16h11.79c.08,0,.17-.03,.17-.16v-.56c0-4.19,0-4.94-.05-5.8-.06-.91-.28-1.34-1.2-1.53-.22-.05-.69-.08-.94-.08-.11,0-.22-.05-.22-.16,0-.16,.14-.22,.44-.22,1.25,0,3.01,.08,3.14,.08s1.89-.08,2.73-.08c.3,0,.45,.06,.45,.22,0,.11-.11,.16-.22,.16-.2,0-.36,.03-.7,.08-.75,.13-.97,.59-1.03,1.53-.05,.86-.05,1.61-.05,5.8v4.72Z"/></g><rect class="cls-2" x="125.75" y="66.47" width="485.21" height="2.45"/><g><path class="cls-1" d="M128.09,8.21c1.13-.17,2.59-.27,4.14-.27,2.57,0,4.24,.45,5.55,1.4,1.41,1.01,2.29,2.62,2.29,4.93,0,2.51-.95,4.23-2.25,5.3-1.43,1.15-3.6,1.69-6.25,1.69-1.59,0-2.71-.1-3.48-.19V8.21Zm3.08,10.68c.26,.06,.68,.06,1.07,.06,2.78,.02,4.59-1.46,4.59-4.58,.02-2.72-1.63-4.16-4.26-4.16-.68,0-1.13,.06-1.39,.12v8.57Z"/><path class="cls-1" d="M144.55,17.32c.1,1.22,1.35,1.81,2.78,1.81,1.05,0,1.89-.14,2.72-.39l.4,2c-1.01,.39-2.23,.58-3.56,.58-3.34,0-5.25-1.86-5.25-4.84,0-2.41,1.55-5.07,4.97-5.07,3.18,0,4.38,2.39,4.38,4.74,0,.5-.06,.95-.1,1.17h-6.33Zm3.6-2.02c0-.72-.32-1.92-1.73-1.92-1.29,0-1.81,1.13-1.89,1.92h3.62Z"/><path class="cls-1" d="M153.01,14.82c0-1.24-.04-2.31-.08-3.19h2.65l.14,1.32h.04c.72-1.01,1.85-1.53,3.28-1.53,2.15,0,4.08,1.81,4.08,4.84,0,3.46-2.27,5.09-4.46,5.09-1.19,0-2.11-.47-2.55-1.09h-.04v4.72h-3.06V14.82Zm3.06,2.23c0,.23,.02,.45,.06,.62,.2,.8,.9,1.4,1.79,1.4,1.33,0,2.11-1.07,2.11-2.68,0-1.52-.7-2.66-2.07-2.66-.87,0-1.63,.62-1.83,1.5-.04,.16-.06,.35-.06,.52v1.3Z"/><path class="cls-1" d="M170.83,21.13l-.18-.95h-.06c-.64,.76-1.65,1.17-2.82,1.17-1.99,0-3.18-1.4-3.18-2.91,0-2.47,2.29-3.65,5.77-3.63v-.14c0-.5-.28-1.22-1.79-1.22-1.01,0-2.07,.33-2.72,.72l-.56-1.9c.68-.37,2.03-.84,3.82-.84,3.28,0,4.32,1.86,4.32,4.1v3.3c0,.91,.04,1.79,.14,2.31h-2.75Zm-.36-4.49c-1.61-.02-2.86,.35-2.86,1.5,0,.76,.52,1.13,1.21,1.13,.76,0,1.39-.49,1.59-1.09,.04-.16,.06-.33,.06-.5v-1.03Z"/><path class="cls-1" d="M176.06,14.76c0-1.4-.04-2.31-.08-3.13h2.63l.1,1.75h.08c.5-1.38,1.71-1.96,2.65-1.96,.28,0,.42,0,.64,.04v2.78c-.22-.04-.48-.08-.82-.08-1.13,0-1.89,.58-2.09,1.5-.04,.19-.06,.43-.06,.66v4.82h-3.06v-6.37Z"/><path class="cls-1" d="M187.75,8.91v2.72h2.19v2.18h-2.19v3.44c0,1.15,.28,1.67,1.21,1.67,.38,0,.68-.04,.9-.08l.02,2.23c-.4,.16-1.13,.25-1.99,.25-.99,0-1.81-.33-2.29-.82-.56-.56-.84-1.48-.84-2.82v-3.89h-1.31v-2.18h1.31v-2.06l3-.66Z"/><path class="cls-1" d="M191.91,14.66c0-1.19-.04-2.19-.08-3.03h2.57l.14,1.28h.06c.42-.6,1.29-1.5,2.98-1.5,1.27,0,2.27,.62,2.69,1.61h.04c.36-.49,.8-.87,1.27-1.15,.54-.31,1.15-.47,1.87-.47,1.89,0,3.32,1.28,3.32,4.12v5.59h-2.98v-5.17c0-1.38-.46-2.18-1.45-2.18-.7,0-1.21,.47-1.41,1.03-.08,.21-.12,.52-.12,.76v5.56h-2.98v-5.32c0-1.2-.44-2.02-1.41-2.02-.78,0-1.25,.58-1.43,1.07-.1,.23-.12,.5-.12,.74v5.54h-2.98v-6.47Z"/><path class="cls-1" d="M211.76,17.32c.1,1.22,1.35,1.81,2.78,1.81,1.05,0,1.89-.14,2.72-.39l.4,2c-1.01,.39-2.23,.58-3.56,.58-3.34,0-5.25-1.86-5.25-4.84,0-2.41,1.55-5.07,4.97-5.07,3.18,0,4.38,2.39,4.38,4.74,0,.5-.06,.95-.1,1.17h-6.33Zm3.6-2.02c0-.72-.32-1.92-1.73-1.92-1.29,0-1.81,1.13-1.89,1.92h3.62Z"/><path class="cls-1" d="M220.23,14.66c0-1.19-.04-2.19-.08-3.03h2.65l.14,1.3h.06c.4-.6,1.41-1.52,3.04-1.52,2.01,0,3.52,1.28,3.52,4.08v5.63h-3.06v-5.26c0-1.22-.44-2.06-1.55-2.06-.84,0-1.35,.56-1.55,1.11-.08,.17-.12,.47-.12,.74v5.48h-3.06v-6.47Z"/><path class="cls-1" d="M235.51,8.91v2.72h2.19v2.18h-2.19v3.44c0,1.15,.28,1.67,1.21,1.67,.38,0,.68-.04,.9-.08l.02,2.23c-.4,.16-1.13,.25-1.99,.25-.99,0-1.81-.33-2.29-.82-.56-.56-.84-1.48-.84-2.82v-3.89h-1.31v-2.18h1.31v-2.06l3-.66Z"/><path class="cls-1" d="M253.66,16.27c0,3.48-2.55,5.07-5.19,5.07-2.88,0-5.09-1.83-5.09-4.9s2.09-5.03,5.25-5.03,5.03,2,5.03,4.86Zm-7.12,.1c0,1.63,.7,2.85,2.01,2.85,1.19,0,1.95-1.15,1.95-2.85,0-1.42-.56-2.86-1.95-2.86-1.47,0-2.01,1.46-2.01,2.86Z"/><path class="cls-1" d="M256.09,21.13v-7.32h-1.29v-2.18h1.29v-.37c0-1.15,.36-2.41,1.25-3.19,.76-.7,1.83-.95,2.72-.95,.68,0,1.21,.08,1.63,.19l-.12,2.27c-.26-.08-.58-.14-.99-.14-1.01,0-1.43,.76-1.43,1.69v.49h1.97v2.18h-1.95v7.32h-3.08Z"/></g></svg>